<svg width="264" height="112" viewBox="0 0 264 112" fill="none" xmlns="http://www.w3.org/2000/svg">
<path d="M81.6872 59.3571L88.8735 70.3601C89.2225 70.9317 89.2383 71.5032 88.9211 72.0748C88.7941 72.3289 88.5958 72.5353 88.3262 72.694C88.0565 72.8528 87.7789 72.9322 87.4933 72.9322H83.1625C82.877 72.9322 82.6073 72.8608 82.3535 72.7179C82.0996 72.575 81.9093 72.3924 81.7824 72.1701L74.5485 60.6908H66.0772V71.2651C66.0772 71.7097 65.9107 72.0986 65.5775 72.4321C65.2444 72.7655 64.8557 72.9322 64.4115 72.9322H60.7946C60.3504 72.9322 59.9618 72.7655 59.6286 72.4321C59.2955 72.0986 59.1289 71.7097 59.1289 71.2651V55.5942C59.1289 55.1496 59.2955 54.7606 59.6286 54.4272C59.9618 54.0938 60.3504 53.9271 60.7946 53.9271H75.4527C78.2447 53.9271 80.1008 53.1332 81.0209 51.5455C81.3382 51.0374 81.4968 50.307 81.4968 49.3544C81.4968 47.8619 81.005 46.687 80.0215 45.8296C79.0062 44.9087 77.5467 44.4483 75.6431 44.4483H60.7946C60.3504 44.4483 59.9618 44.2816 59.6286 43.9482C59.2955 43.6147 59.1289 43.2258 59.1289 42.7812V39.3517C59.1289 38.9071 59.2955 38.5181 59.6286 38.1847C59.9618 37.8513 60.3504 37.6846 60.7946 37.6846H76.0714C79.7835 37.6846 82.75 38.7325 84.971 40.8283C87.2871 42.9241 88.4451 45.7661 88.4451 49.3544C88.4451 51.6725 87.9375 53.6492 86.9222 55.2846C85.9069 56.9199 84.4316 58.1663 82.4962 59.0237L81.6872 59.3571ZM119.808 66.1685C120.284 66.1685 120.68 66.3352 120.998 66.6686C121.315 67.002 121.474 67.4069 121.474 67.8832V71.3604C121.474 71.8049 121.315 72.1939 120.998 72.5273C120.68 72.8608 120.284 73.0275 119.808 73.0275H96.2977C95.8535 73.0275 95.4649 72.8608 95.1317 72.5273C94.7986 72.1939 94.632 71.8049 94.632 71.3604V67.8832C94.632 67.4069 94.7986 67.002 95.1317 66.6686C95.4649 66.3352 95.8535 66.1685 96.2977 66.1685H119.808ZM96.2977 58.7855C95.8535 58.7855 95.4649 58.6188 95.1317 58.2854C94.7986 57.952 94.632 57.563 94.632 57.1184V53.546C94.632 53.1014 94.7986 52.7124 95.1317 52.379C95.4649 52.0456 95.8535 51.8789 96.2977 51.8789H117.666C118.142 51.8789 118.547 52.0456 118.88 52.379C119.213 52.7124 119.379 53.1014 119.379 53.546V57.1184C119.379 57.563 119.213 57.952 118.88 58.2854C118.547 58.6188 118.142 58.7855 117.666 58.7855H96.2977ZM119.808 37.6846C120.284 37.6846 120.68 37.8513 120.998 38.1847C121.315 38.5181 121.474 38.9071 121.474 39.3517V42.8288C121.474 43.3051 121.315 43.71 120.998 44.0434C120.68 44.3769 120.284 44.5436 119.808 44.5436H96.2977C95.8535 44.5436 95.4649 44.3769 95.1317 44.0434C94.7986 43.71 94.632 43.3051 94.632 42.8288V39.3517C94.632 38.9071 94.7986 38.5181 95.1317 38.1847C95.4649 37.8513 95.8535 37.6846 96.2977 37.6846H119.808ZM158.547 70.6935C158.769 71.2016 158.714 71.7176 158.381 72.2415C158.047 72.7655 157.595 73.0275 157.024 73.0275H125.328C125.043 73.0275 124.773 72.956 124.519 72.8131C124.266 72.6702 124.075 72.4876 123.948 72.2654C123.599 71.7573 123.552 71.2333 123.805 70.6935L125.281 67.2164C125.408 66.8988 125.614 66.6448 125.899 66.4543C126.185 66.2637 126.486 66.1685 126.804 66.1685H148.981L141.176 47.4967L134.799 62.739C134.672 63.0565 134.474 63.3026 134.204 63.4773C133.934 63.6519 133.625 63.7392 133.276 63.7392H129.278C128.676 63.7392 128.2 63.4852 127.851 62.9771C127.724 62.7548 127.645 62.5008 127.613 62.215C127.581 61.9292 127.613 61.6593 127.708 61.4053L137.369 38.7325C137.496 38.4149 137.694 38.1609 137.964 37.9704C138.234 37.7798 138.543 37.6846 138.892 37.6846H143.461C143.81 37.6846 144.119 37.7798 144.389 37.9704C144.658 38.1609 144.857 38.4149 144.984 38.7325L158.547 70.6935ZM166.162 37.6846C166.638 37.6846 167.042 37.8513 167.375 38.1847C167.708 38.5181 167.875 38.923 167.875 39.3993V42.8765C167.875 43.3528 167.708 43.7576 167.375 44.0911C167.042 44.4245 166.638 44.5912 166.162 44.5912H161.26C160.816 44.5912 160.427 44.4245 160.094 44.0911C159.761 43.7576 159.594 43.3528 159.594 42.8765V39.3993C159.594 38.923 159.761 38.5181 160.094 38.1847C160.427 37.8513 160.816 37.6846 161.26 37.6846H166.162ZM187.435 37.6846C187.879 37.6846 188.268 37.8513 188.601 38.1847C188.934 38.5181 189.101 38.923 189.101 39.3993V42.8765C189.101 43.3528 188.934 43.7576 188.601 44.0911C188.268 44.4245 187.879 44.5912 187.435 44.5912H177.869V71.6461C177.869 72.0907 177.703 72.4797 177.369 72.8131C177.036 73.1466 176.648 73.3133 176.203 73.3133H172.539C172.063 73.3133 171.659 73.1466 171.325 72.8131C170.992 72.4797 170.826 72.0907 170.826 71.6461V39.3993C170.826 38.923 170.992 38.5181 171.325 38.1847C171.659 37.8513 172.063 37.6846 172.539 37.6846H187.435ZM207.423 38.0656C207.804 38.3832 207.994 38.8119 207.994 39.3517V42.9241C207.994 43.3369 207.875 43.6941 207.638 43.9958C207.4 44.2975 207.074 44.4959 206.662 44.5912C204.631 45.004 202.902 45.9725 201.474 47.4967C199.539 49.529 198.571 52.1726 198.571 55.4275C198.571 58.6823 199.539 61.3418 201.474 63.4058C202.902 64.8983 204.631 65.8509 206.662 66.2637C207.074 66.359 207.4 66.5575 207.638 66.8591C207.875 67.1608 207.994 67.518 207.994 67.9309V71.5033C207.994 72.0113 207.804 72.44 207.423 72.7893C207.074 73.0433 206.709 73.1704 206.329 73.1704H206.043C202.363 72.567 199.206 70.8999 196.573 68.169C193.273 64.7713 191.623 60.54 191.623 55.4751C191.623 50.4102 193.273 46.1472 196.573 42.6859C199.142 40.0185 202.299 38.3673 206.043 37.7322C206.551 37.6369 207.011 37.7481 207.423 38.0656ZM222.367 42.6859C225.667 46.1472 227.317 50.4102 227.317 55.4751C227.317 60.54 225.667 64.7713 222.367 68.169C219.734 70.8999 216.577 72.567 212.896 73.1704H212.611C212.23 73.1704 211.865 73.0433 211.516 72.7893C211.135 72.44 210.945 72.0113 210.945 71.5033V67.9309C210.945 67.518 211.064 67.1608 211.302 66.8591C211.54 66.5575 211.865 66.359 212.278 66.2637C214.308 65.8509 216.037 64.8983 217.465 63.4058C219.401 61.3418 220.368 58.6823 220.368 55.4275C220.368 52.1726 219.401 49.529 217.465 47.4967C216.037 45.9725 214.308 45.004 212.278 44.5912C211.865 44.4959 211.54 44.2975 211.302 43.9958C211.064 43.6941 210.945 43.3369 210.945 42.9241V39.3517C210.945 38.8119 211.143 38.3832 211.54 38.0656C211.937 37.7481 212.389 37.6369 212.896 37.7322C216.64 38.3673 219.797 40.0185 222.367 42.6859ZM255.586 59.3571L262.772 70.3601C263.121 70.9317 263.137 71.5032 262.82 72.0748C262.693 72.3289 262.494 72.5353 262.225 72.694C261.955 72.8528 261.677 72.9322 261.392 72.9322H257.061C256.776 72.9322 256.506 72.8608 256.252 72.7179C255.998 72.575 255.808 72.3924 255.681 72.1701L248.447 60.6908H239.976V71.2651C239.976 71.7097 239.809 72.0986 239.476 72.4321C239.143 72.7655 238.754 72.9322 238.31 72.9322H234.693C234.249 72.9322 233.86 72.7655 233.527 72.4321C233.194 72.0986 233.027 71.7097 233.027 71.2651V55.5942C233.027 55.1496 233.194 54.7606 233.527 54.4272C233.86 54.0938 234.249 53.9271 234.693 53.9271H249.351C252.143 53.9271 253.999 53.1332 254.919 51.5455C255.237 51.0374 255.395 50.307 255.395 49.3544C255.395 47.8619 254.904 46.687 253.92 45.8296C252.905 44.9087 251.445 44.4483 249.542 44.4483L234.693 44.4483C234.249 44.4483 233.86 44.2816 233.527 43.9482C233.194 43.6147 233.027 43.2258 233.027 42.7812V39.3517C233.027 38.9071 233.194 38.5181 233.527 38.1847C233.86 37.8513 234.249 37.6846 234.693 37.6846H249.97C253.682 37.6846 256.649 38.7325 258.87 40.8283C261.186 42.9241 262.344 45.7661 262.344 49.3544C262.344 51.6725 261.836 53.6492 260.821 55.2846C259.806 56.9199 258.33 58.1663 256.395 59.0237L255.586 59.3571Z" fill="url(#paint0_linear_7_2)"/>
<path fill-rule="evenodd" clip-rule="evenodd" d="M27.416 7.15272C32.4751 4.26858 37.9006 2.23709 43.5841 1.05823C45.3745 0.686853 46.9986 2.0959 46.9986 3.9245V24.2453C46.9986 25.4931 46.2198 26.5976 45.0867 27.1203C43.9544 27.6425 42.8353 28.2452 41.7351 28.9292C31.2577 35.375 27.416 47.2215 27.9398 59.0679C28.4067 69.7815 35.3932 79.1112 45.0667 83.4802C46.2107 83.9969 46.9986 85.1063 46.9986 86.3615V108.093C46.9986 109.906 45.4019 111.311 43.6225 110.967C37.6718 109.816 32.0811 107.731 26.8921 104.711C18.5101 99.6592 11.8744 92.865 7.15958 84.3286C2.44473 75.7922 0 66.2106 0 55.5836C0 45.3051 2.44473 35.7235 7.3342 27.1871C12.2237 18.8249 19.034 12.0307 27.416 7.15272ZM56.8534 108.878C56.8534 110.579 58.2682 111.948 59.961 111.778C65.8721 111.182 71.8431 109.523 77.7076 106.802C81.1047 105.188 84.3518 103.275 87.4145 101.098C88.9714 99.9914 88.9827 97.7233 87.5037 96.5144L72.1889 83.9966C71.2221 83.2064 69.8738 83.1133 68.7469 83.6513C65.9601 84.9821 62.9911 85.7863 59.916 86.0642C58.2404 86.2156 56.8534 87.551 56.8534 89.2334V108.878ZM71.2018 26.7862C70.2291 27.5813 68.871 27.6705 67.741 27.1213C65.2203 25.8963 62.5492 25.1019 59.8096 24.751C58.1798 24.5422 56.8534 23.2235 56.8534 21.5804V2.91722C56.8534 1.23388 58.2395 -0.128531 59.9172 0.00966343C66.1384 0.522125 72.2431 2.15338 78.2315 4.71376C81.2403 6.07168 84.0728 7.60552 86.7289 9.3273C88.3658 10.3883 88.4172 12.7149 86.9068 13.9494L71.2018 26.7862Z" fill="url(#paint1_linear_7_2)"/>
<defs>
<linearGradient id="paint0_linear_7_2" x1="59.1289" y1="55.5465" x2="267.936" y2="55.5465" gradientUnits="userSpaceOnUse">
<stop stop-color="#2C3B8C"/>
<stop offset="0.500074" stop-color="#196EB8"/>
<stop offset="0.802175" stop-color="#0A93D8"/>
<stop offset="0.989686" stop-color="#01ACED"/>
</linearGradient>
<linearGradient id="paint1_linear_7_2" x1="-4.95693e-09" y1="47.2168" x2="95.8648" y2="49.0438" gradientUnits="userSpaceOnUse">
<stop stop-color="#8C00FF"/>
<stop offset="1" stop-color="#D000FF"/>
</linearGradient>
</defs>
</svg>
